<mxfile host="app.diagrams.net" agent="Mozilla/5.0 (Windows NT 10.0; Win64; x64) AppleWebKit/537.36 (KHTML, like Gecko) Chrome/130.0.0.0 Safari/537.36" version="24.7.17">
  <diagram name="Page-1" id="c7558073-3199-34d8-9f00-42111426c3f3">
    <mxGraphModel dx="2083" dy="2249" grid="1" gridSize="10" guides="1" tooltips="1" connect="1" arrows="1" fold="1" page="1" pageScale="1" pageWidth="826" pageHeight="1169" background="none" math="0" shadow="0">
      <root>
        <mxCell id="0" />
        <mxCell id="1" parent="0" />
        <mxCell id="bPpLylly48dEyVhhrUIa-101" value="" style="edgeStyle=orthogonalEdgeStyle;rounded=1;orthogonalLoop=1;jettySize=auto;html=1;strokeColor=#990000;strokeWidth=2;align=center;verticalAlign=middle;fontFamily=Helvetica;fontSize=11;fontColor=default;labelBackgroundColor=default;elbow=horizontal;endArrow=classic;" edge="1" parent="1" source="bPpLylly48dEyVhhrUIa-96" target="bPpLylly48dEyVhhrUIa-100">
          <mxGeometry relative="1" as="geometry" />
        </mxCell>
        <mxCell id="bPpLylly48dEyVhhrUIa-96" value="创建项目" style="whiteSpace=wrap;align=center;verticalAlign=middle;fontStyle=1;strokeWidth=3;fillColor=#FFFFCC;fontSize=14;" vertex="1" parent="1">
          <mxGeometry x="960" y="120" width="120" height="60" as="geometry" />
        </mxCell>
        <mxCell id="bPpLylly48dEyVhhrUIa-99" value="" style="edgeStyle=orthogonalEdgeStyle;rounded=1;orthogonalLoop=1;jettySize=auto;html=1;strokeColor=#990000;strokeWidth=2;align=center;verticalAlign=middle;fontFamily=Helvetica;fontSize=11;fontColor=default;labelBackgroundColor=default;elbow=horizontal;endArrow=classic;" edge="1" parent="1" source="bPpLylly48dEyVhhrUIa-98" target="bPpLylly48dEyVhhrUIa-96">
          <mxGeometry relative="1" as="geometry" />
        </mxCell>
        <mxCell id="bPpLylly48dEyVhhrUIa-109" value="" style="edgeStyle=orthogonalEdgeStyle;rounded=1;orthogonalLoop=1;jettySize=auto;html=1;entryX=0.5;entryY=1;entryDx=0;entryDy=0;elbow=horizontal;strokeColor=#990000;strokeWidth=2;align=center;verticalAlign=middle;fontFamily=Helvetica;fontSize=11;fontColor=default;labelBackgroundColor=default;endArrow=classic;" edge="1" parent="1" source="bPpLylly48dEyVhhrUIa-98" target="bPpLylly48dEyVhhrUIa-110">
          <mxGeometry relative="1" as="geometry">
            <mxPoint x="1079.9999999999995" y="40" as="targetPoint" />
          </mxGeometry>
        </mxCell>
        <mxCell id="bPpLylly48dEyVhhrUIa-113" value="" style="edgeStyle=orthogonalEdgeStyle;rounded=1;orthogonalLoop=1;jettySize=auto;html=1;strokeColor=#990000;strokeWidth=2;align=center;verticalAlign=middle;fontFamily=Helvetica;fontSize=11;fontColor=default;labelBackgroundColor=default;elbow=horizontal;endArrow=classic;" edge="1" parent="1" source="bPpLylly48dEyVhhrUIa-98" target="bPpLylly48dEyVhhrUIa-111">
          <mxGeometry relative="1" as="geometry" />
        </mxCell>
        <mxCell id="bPpLylly48dEyVhhrUIa-114" style="edgeStyle=orthogonalEdgeStyle;rounded=1;orthogonalLoop=1;jettySize=auto;html=1;entryX=0.5;entryY=1;entryDx=0;entryDy=0;strokeColor=#990000;strokeWidth=2;align=center;verticalAlign=middle;fontFamily=Helvetica;fontSize=11;fontColor=default;labelBackgroundColor=default;elbow=horizontal;endArrow=classic;" edge="1" parent="1" source="bPpLylly48dEyVhhrUIa-98" target="bPpLylly48dEyVhhrUIa-112">
          <mxGeometry relative="1" as="geometry" />
        </mxCell>
        <mxCell id="bPpLylly48dEyVhhrUIa-98" value="" style="strokeWidth=2;html=1;shape=mxgraph.flowchart.start_2;whiteSpace=wrap;" vertex="1" parent="1">
          <mxGeometry x="1000" y="20" width="40" height="40" as="geometry" />
        </mxCell>
        <mxCell id="bPpLylly48dEyVhhrUIa-103" value="" style="edgeStyle=orthogonalEdgeStyle;rounded=1;orthogonalLoop=1;jettySize=auto;html=1;strokeColor=#990000;strokeWidth=2;align=center;verticalAlign=middle;fontFamily=Helvetica;fontSize=11;fontColor=default;labelBackgroundColor=default;elbow=horizontal;endArrow=classic;" edge="1" parent="1" source="bPpLylly48dEyVhhrUIa-100" target="bPpLylly48dEyVhhrUIa-102">
          <mxGeometry relative="1" as="geometry" />
        </mxCell>
        <mxCell id="bPpLylly48dEyVhhrUIa-121" value="" style="edgeStyle=orthogonalEdgeStyle;rounded=1;orthogonalLoop=1;jettySize=auto;html=1;entryX=0;entryY=0.5;entryDx=0;entryDy=0;strokeColor=#990000;strokeWidth=2;align=center;verticalAlign=middle;fontFamily=Helvetica;fontSize=11;fontColor=default;labelBackgroundColor=default;elbow=horizontal;endArrow=classic;" edge="1" parent="1" source="bPpLylly48dEyVhhrUIa-100" target="bPpLylly48dEyVhhrUIa-119">
          <mxGeometry relative="1" as="geometry" />
        </mxCell>
        <mxCell id="bPpLylly48dEyVhhrUIa-100" value="项目基础配置" style="whiteSpace=wrap;align=center;verticalAlign=middle;fontStyle=1;strokeWidth=3;fillColor=#FFFFCC;fontSize=14;" vertex="1" parent="1">
          <mxGeometry x="960" y="241" width="120" height="60" as="geometry" />
        </mxCell>
        <mxCell id="bPpLylly48dEyVhhrUIa-130" style="edgeStyle=orthogonalEdgeStyle;rounded=1;orthogonalLoop=1;jettySize=auto;html=1;strokeColor=#990000;strokeWidth=2;align=center;verticalAlign=middle;fontFamily=Helvetica;fontSize=11;fontColor=default;labelBackgroundColor=default;elbow=horizontal;endArrow=classic;" edge="1" parent="1" source="bPpLylly48dEyVhhrUIa-102" target="bPpLylly48dEyVhhrUIa-125">
          <mxGeometry relative="1" as="geometry" />
        </mxCell>
        <mxCell id="bPpLylly48dEyVhhrUIa-102" value="低代码配置" style="whiteSpace=wrap;align=center;verticalAlign=middle;fontStyle=1;strokeWidth=3;fillColor=#FFFFCC;fontSize=14;" vertex="1" parent="1">
          <mxGeometry x="960" y="361" width="120" height="60" as="geometry" />
        </mxCell>
        <mxCell id="bPpLylly48dEyVhhrUIa-107" value="" style="edgeStyle=orthogonalEdgeStyle;rounded=1;orthogonalLoop=1;jettySize=auto;html=1;strokeColor=#990000;strokeWidth=2;align=center;verticalAlign=middle;fontFamily=Helvetica;fontSize=11;fontColor=default;labelBackgroundColor=default;elbow=horizontal;endArrow=classic;" edge="1" parent="1" source="bPpLylly48dEyVhhrUIa-104" target="bPpLylly48dEyVhhrUIa-106">
          <mxGeometry relative="1" as="geometry" />
        </mxCell>
        <mxCell id="bPpLylly48dEyVhhrUIa-104" value="发布低代码" style="whiteSpace=wrap;align=center;verticalAlign=middle;fontStyle=1;strokeWidth=3;fillColor=#FFFFCC;fontSize=14;" vertex="1" parent="1">
          <mxGeometry x="960" y="481" width="120" height="60" as="geometry" />
        </mxCell>
        <mxCell id="bPpLylly48dEyVhhrUIa-106" value="菜单配置" style="whiteSpace=wrap;align=center;verticalAlign=middle;fontStyle=1;strokeWidth=3;fillColor=#FFFFCC;fontSize=14;" vertex="1" parent="1">
          <mxGeometry x="960" y="600" width="120" height="60" as="geometry" />
        </mxCell>
        <mxCell id="bPpLylly48dEyVhhrUIa-110" value="用户管理" style="whiteSpace=wrap;align=center;verticalAlign=middle;fontStyle=1;strokeWidth=3;fillColor=#FFFFCC;fontSize=14;" vertex="1" parent="1">
          <mxGeometry x="760" y="-100" width="120" height="60" as="geometry" />
        </mxCell>
        <mxCell id="bPpLylly48dEyVhhrUIa-111" value="组织机构管理" style="whiteSpace=wrap;align=center;verticalAlign=middle;fontStyle=1;strokeWidth=3;fillColor=#FFFFCC;fontSize=14;" vertex="1" parent="1">
          <mxGeometry x="960" y="-100" width="120" height="60" as="geometry" />
        </mxCell>
        <mxCell id="bPpLylly48dEyVhhrUIa-112" value="公告管理" style="whiteSpace=wrap;align=center;verticalAlign=middle;fontStyle=1;strokeWidth=3;fillColor=#FFFFCC;fontSize=14;" vertex="1" parent="1">
          <mxGeometry x="1160" y="-100" width="120" height="60" as="geometry" />
        </mxCell>
        <mxCell id="bPpLylly48dEyVhhrUIa-135" style="edgeStyle=orthogonalEdgeStyle;rounded=1;orthogonalLoop=1;jettySize=auto;html=1;entryX=1;entryY=0.5;entryDx=0;entryDy=0;exitX=0.5;exitY=1;exitDx=0;exitDy=0;strokeColor=#990000;strokeWidth=2;align=center;verticalAlign=middle;fontFamily=Helvetica;fontSize=11;fontColor=default;labelBackgroundColor=default;elbow=horizontal;endArrow=classic;" edge="1" parent="1" source="bPpLylly48dEyVhhrUIa-125" target="bPpLylly48dEyVhhrUIa-104">
          <mxGeometry relative="1" as="geometry" />
        </mxCell>
        <mxCell id="bPpLylly48dEyVhhrUIa-125" value="" style="rounded=1;whiteSpace=wrap;html=1;fillColor=none;" vertex="1" parent="1">
          <mxGeometry x="1160" y="340" width="680" height="100" as="geometry" />
        </mxCell>
        <mxCell id="bPpLylly48dEyVhhrUIa-131" value="" style="edgeStyle=orthogonalEdgeStyle;rounded=1;orthogonalLoop=1;jettySize=auto;html=1;strokeColor=#990000;strokeWidth=2;align=center;verticalAlign=middle;fontFamily=Helvetica;fontSize=11;fontColor=default;labelBackgroundColor=default;elbow=horizontal;endArrow=classic;" edge="1" parent="1" source="bPpLylly48dEyVhhrUIa-126" target="bPpLylly48dEyVhhrUIa-127">
          <mxGeometry relative="1" as="geometry" />
        </mxCell>
        <mxCell id="bPpLylly48dEyVhhrUIa-126" value="模型建立" style="whiteSpace=wrap;align=center;verticalAlign=middle;fontStyle=1;strokeWidth=3;fillColor=#E6FFCC;fontSize=14;" vertex="1" parent="1">
          <mxGeometry x="1200" y="361" width="120" height="60" as="geometry" />
        </mxCell>
        <mxCell id="bPpLylly48dEyVhhrUIa-132" value="" style="edgeStyle=orthogonalEdgeStyle;rounded=1;orthogonalLoop=1;jettySize=auto;html=1;strokeColor=#990000;strokeWidth=2;align=center;verticalAlign=middle;fontFamily=Helvetica;fontSize=11;fontColor=default;labelBackgroundColor=default;elbow=horizontal;endArrow=classic;" edge="1" parent="1" source="bPpLylly48dEyVhhrUIa-127" target="bPpLylly48dEyVhhrUIa-128">
          <mxGeometry relative="1" as="geometry" />
        </mxCell>
        <mxCell id="bPpLylly48dEyVhhrUIa-127" value="表单建立" style="whiteSpace=wrap;align=center;verticalAlign=middle;fontStyle=1;strokeWidth=3;fillColor=#E6FFCC;fontSize=14;" vertex="1" parent="1">
          <mxGeometry x="1360" y="361" width="120" height="60" as="geometry" />
        </mxCell>
        <mxCell id="bPpLylly48dEyVhhrUIa-133" value="" style="edgeStyle=orthogonalEdgeStyle;rounded=1;orthogonalLoop=1;jettySize=auto;html=1;strokeColor=#990000;strokeWidth=2;align=center;verticalAlign=middle;fontFamily=Helvetica;fontSize=11;fontColor=default;labelBackgroundColor=default;elbow=horizontal;endArrow=classic;" edge="1" parent="1" source="bPpLylly48dEyVhhrUIa-128" target="bPpLylly48dEyVhhrUIa-129">
          <mxGeometry relative="1" as="geometry" />
        </mxCell>
        <mxCell id="bPpLylly48dEyVhhrUIa-128" value="列表建立" style="whiteSpace=wrap;align=center;verticalAlign=middle;fontStyle=1;strokeWidth=3;fillColor=#E6FFCC;fontSize=14;" vertex="1" parent="1">
          <mxGeometry x="1520" y="361" width="120" height="60" as="geometry" />
        </mxCell>
        <mxCell id="bPpLylly48dEyVhhrUIa-129" value="流程建立" style="whiteSpace=wrap;align=center;verticalAlign=middle;fontStyle=1;strokeWidth=3;fillColor=#E6FFCC;fontSize=14;" vertex="1" parent="1">
          <mxGeometry x="1680" y="361" width="120" height="60" as="geometry" />
        </mxCell>
        <mxCell id="bPpLylly48dEyVhhrUIa-119" value="" style="rounded=1;whiteSpace=wrap;html=1;fillColor=none;" vertex="1" parent="1">
          <mxGeometry x="1160" y="220" width="520" height="100" as="geometry" />
        </mxCell>
        <mxCell id="bPpLylly48dEyVhhrUIa-115" value="基础信息配置" style="whiteSpace=wrap;align=center;verticalAlign=middle;fontStyle=1;strokeWidth=3;fillColor=#E6FFCC;fontSize=14;" vertex="1" parent="1">
          <mxGeometry x="1200" y="242" width="120" height="60" as="geometry" />
        </mxCell>
        <mxCell id="bPpLylly48dEyVhhrUIa-117" value="开发配置" style="whiteSpace=wrap;align=center;verticalAlign=middle;fontStyle=1;strokeWidth=3;fillColor=#E6FFCC;fontSize=14;" vertex="1" parent="1">
          <mxGeometry x="1360" y="242" width="120" height="60" as="geometry" />
        </mxCell>
        <mxCell id="bPpLylly48dEyVhhrUIa-118" value="外部数据源配置" style="whiteSpace=wrap;align=center;verticalAlign=middle;fontStyle=1;strokeWidth=3;fillColor=#E6FFCC;fontSize=14;" vertex="1" parent="1">
          <mxGeometry x="1520" y="242" width="120" height="60" as="geometry" />
        </mxCell>
      </root>
    </mxGraphModel>
  </diagram>
</mxfile>
